<?xml version="1.0" encoding="UTF-8"?>
<!DOCTYPE svg PUBLIC "-//W3C//DTD SVG 1.1//EN" "http://www.w3.org/Graphics/SVG/1.1/DTD/svg11.dtd">
<svg xmlns="http://www.w3.org/2000/svg" version="1.1" width="600px" height="246px" style="shape-rendering:geometricPrecision; text-rendering:geometricPrecision; image-rendering:optimizeQuality; fill-rule:evenodd; clip-rule:evenodd" xmlns:xlink="http://www.w3.org/1999/xlink">
<g><path style="opacity:1" fill="#fefefe" d="M -0.5,-0.5 C 199.5,-0.5 399.5,-0.5 599.5,-0.5C 599.5,81.5 599.5,163.5 599.5,245.5C 399.5,245.5 199.5,245.5 -0.5,245.5C -0.5,163.5 -0.5,81.5 -0.5,-0.5 Z"/></g>
<g><path style="opacity:1" fill="#9d9e9c" d="M 140.5,22.5 C 140.5,28.1667 140.5,33.8333 140.5,39.5C 113.104,60.7178 86.1038,82.5512 59.5,105C 58.5,105.667 57.5,105.667 56.5,105C 53.8333,102.333 51.1667,99.6667 48.5,97C 78.7703,71.5514 109.437,46.718 140.5,22.5 Z"/></g>
<g><path style="opacity:1" fill="#31577e" d="M 140.5,22.5 C 167.336,44.4995 194.336,66.3328 221.5,88C 224.799,90.7931 227.799,93.7931 230.5,97C 228.226,101.303 224.893,103.969 220.5,105C 193.96,82.9543 167.293,61.121 140.5,39.5C 140.5,33.8333 140.5,28.1667 140.5,22.5 Z"/></g>
<g><path style="opacity:1" fill="#2e567d" d="M 92.5,106.5 C 91.5018,138.662 91.1684,170.996 91.5,203.5C 105.677,203.829 119.677,203.496 133.5,202.5C 133.5,188.833 133.5,175.167 133.5,161.5C 127.355,160.51 121.022,160.177 114.5,160.5C 114.5,156.5 114.5,152.5 114.5,148.5C 123.839,148.334 133.173,148.5 142.5,149C 144.333,149.5 145.5,150.667 146,152.5C 146.5,173.831 146.667,195.164 146.5,216.5C 125.164,216.667 103.831,216.5 82.5,216C 81.3333,214.833 80.1667,213.667 79,212.5C 78.3333,174.167 78.3333,135.833 79,97.5C 79.5,95.6667 80.6667,94.5 82.5,94C 100.497,93.5001 118.497,93.3334 136.5,93.5C 136.5,97.8333 136.5,102.167 136.5,106.5C 121.833,106.5 107.167,106.5 92.5,106.5 Z"/></g>
<g><path style="opacity:1" fill="#9d9e9b" d="M 153.5,203.5 C 165.167,203.5 176.833,203.5 188.5,203.5C 188.829,189.323 188.496,175.323 187.5,161.5C 176.167,161.5 164.833,161.5 153.5,161.5C 153.5,157.167 153.5,152.833 153.5,148.5C 165.167,148.5 176.833,148.5 188.5,148.5C 188.5,134.5 188.5,120.5 188.5,106.5C 173.5,106.5 158.5,106.5 143.5,106.5C 143.5,102.167 143.5,97.8333 143.5,93.5C 161.503,93.3334 179.503,93.5001 197.5,94C 199.333,94.5 200.5,95.6667 201,97.5C 201.667,135.5 201.667,173.5 201,211.5C 200.065,214.102 198.232,215.602 195.5,216C 181.504,216.5 167.504,216.667 153.5,216.5C 153.5,212.167 153.5,207.833 153.5,203.5 Z"/></g>
<g><path style="opacity:1" fill="#dbe2e8" d="M 92.5,106.5 C 92.5,138.5 92.5,170.5 92.5,202.5C 106.167,202.5 119.833,202.5 133.5,202.5C 119.677,203.496 105.677,203.829 91.5,203.5C 91.1684,170.996 91.5018,138.662 92.5,106.5 Z"/></g>
<g><path style="opacity:1" fill="#96aabd" d="M 272.5,171.5 C 272.5,171.833 272.5,172.167 272.5,172.5C 260.833,172.5 249.167,172.5 237.5,172.5C 237.5,162.833 237.5,153.167 237.5,143.5C 233.5,143.5 229.5,143.5 225.5,143.5C 225.5,167.833 225.5,192.167 225.5,216.5C 224.502,192.006 224.169,167.339 224.5,142.5C 229.167,142.5 233.833,142.5 238.5,142.5C 238.5,152.167 238.5,161.833 238.5,171.5C 249.833,171.5 261.167,171.5 272.5,171.5 Z"/></g>
<g><path style="opacity:1" fill="#2d547c" d="M 272.5,172.5 C 273.494,163.014 273.827,153.348 273.5,143.5C 277.5,143.5 281.5,143.5 285.5,143.5C 285.5,167.833 285.5,192.167 285.5,216.5C 281.167,216.5 276.833,216.5 272.5,216.5C 272.5,205.833 272.5,195.167 272.5,184.5C 261.012,183.505 249.345,183.172 237.5,183.5C 237.5,194.5 237.5,205.5 237.5,216.5C 233.5,216.5 229.5,216.5 225.5,216.5C 225.5,192.167 225.5,167.833 225.5,143.5C 229.5,143.5 233.5,143.5 237.5,143.5C 237.5,153.167 237.5,162.833 237.5,172.5C 249.167,172.5 260.833,172.5 272.5,172.5 Z"/></g>
<g><path style="opacity:1" fill="#557495" d="M 285.5,143.5 C 281.5,143.5 277.5,143.5 273.5,143.5C 273.827,153.348 273.494,163.014 272.5,172.5C 272.5,172.167 272.5,171.833 272.5,171.5C 272.5,161.833 272.5,152.167 272.5,142.5C 277.032,142.182 281.366,142.515 285.5,143.5 Z"/></g>
<g><path style="opacity:1" fill="#577697" d="M 114.5,148.5 C 114.5,152.5 114.5,156.5 114.5,160.5C 121.022,160.177 127.355,160.51 133.5,161.5C 126.833,161.5 120.167,161.5 113.5,161.5C 113.182,156.968 113.515,152.634 114.5,148.5 Z"/></g>
<g><path style="opacity:1" fill="#31577e" d="M 319.5,165.5 C 342.539,164.04 353.373,174.707 352,197.5C 347.966,210.351 339.133,217.018 325.5,217.5C 305.287,215.774 296.454,204.774 299,184.5C 302.222,174.106 309.055,167.773 319.5,165.5 Z"/></g>
<g><path style="opacity:1" fill="#32587f" d="M 384.5,165.5 C 393.611,163.645 400.945,166.312 406.5,173.5C 414.1,165.076 423.1,163.243 433.5,168C 437.423,171.677 439.923,176.177 441,181.5C 441.5,193.162 441.667,204.829 441.5,216.5C 437.167,216.5 432.833,216.5 428.5,216.5C 428.667,205.162 428.5,193.828 428,182.5C 424.523,176.786 419.69,175.286 413.5,178C 411.383,179.731 409.883,181.898 409,184.5C 408.5,195.161 408.333,205.828 408.5,216.5C 404.5,216.5 400.5,216.5 396.5,216.5C 396.667,205.162 396.5,193.828 396,182.5C 392.707,176.388 387.873,174.888 381.5,178C 379.622,179.543 378.122,181.376 377,183.5C 376.5,194.495 376.333,205.495 376.5,216.5C 372.167,216.5 367.833,216.5 363.5,216.5C 363.5,199.833 363.5,183.167 363.5,166.5C 367.5,166.5 371.5,166.5 375.5,166.5C 375.337,168.857 375.503,171.19 376,173.5C 378.538,170.488 381.371,167.821 384.5,165.5 Z"/></g>
<g><path style="opacity:1" fill="#30577e" d="M 502.5,195.5 C 489.833,195.5 477.167,195.5 464.5,195.5C 464.263,196.791 464.596,197.791 465.5,198.5C 468.538,206.335 474.204,209.168 482.5,207C 486.135,206.184 489.135,204.35 491.5,201.5C 494.64,203.473 497.64,205.64 500.5,208C 491.536,217.206 480.87,219.872 468.5,216C 455.19,209.21 450.024,198.376 453,183.5C 461.424,166.023 474.591,161.19 492.5,169C 500.659,175.972 503.992,184.805 502.5,195.5 Z"/></g>
<g><path style="opacity:1" fill="#31577e" d="M 525.5,165.5 C 532.506,164.907 539.173,166.074 545.5,169C 546.899,170.062 547.899,171.395 548.5,173C 546.022,175.478 543.522,177.978 541,180.5C 536.701,175.552 531.534,174.385 525.5,177C 522.833,179.333 522.833,181.667 525.5,184C 533.711,185.089 541.211,187.922 548,192.5C 553.436,203.444 550.602,211.277 539.5,216C 530.029,218.795 521.029,217.795 512.5,213C 511.426,212.261 510.759,211.261 510.5,210C 512.978,207.522 515.478,205.022 518,202.5C 524.162,209.523 530.829,210.189 538,204.5C 538.825,202.299 538.325,200.466 536.5,199C 529.758,196.864 523.091,194.531 516.5,192C 509.598,184.086 509.932,176.419 517.5,169C 520.158,167.522 522.825,166.355 525.5,165.5 Z"/></g>
<g><path style="opacity:1" fill="#f5f7f9" d="M 473.5,174.5 C 483.117,173.139 488.783,177.139 490.5,186.5C 481.833,186.5 473.167,186.5 464.5,186.5C 465.256,180.752 468.256,176.752 473.5,174.5 Z"/></g>
<g><path style="opacity:1" fill="#f9fafb" d="M 320.5,176.5 C 335.444,175.708 341.611,182.708 339,197.5C 332.822,207.362 324.822,209.028 315,202.5C 307.74,191.776 309.574,183.11 320.5,176.5 Z"/></g>
<g><path style="opacity:1" fill="#899fb6" d="M 272.5,184.5 C 261.167,184.5 249.833,184.5 238.5,184.5C 238.828,195.346 238.494,206.013 237.5,216.5C 237.5,205.5 237.5,194.5 237.5,183.5C 249.345,183.172 261.012,183.505 272.5,184.5 Z"/></g>
<g><path style="opacity:1" fill="#adbccc" d="M 502.5,195.5 C 489.966,195.84 477.633,196.84 465.5,198.5C 464.596,197.791 464.263,196.791 464.5,195.5C 477.167,195.5 489.833,195.5 502.5,195.5 Z"/></g>
<g><path style="opacity:1" fill="#e7e8e7" d="M 187.5,161.5 C 188.496,175.323 188.829,189.323 188.5,203.5C 176.833,203.5 165.167,203.5 153.5,203.5C 164.654,202.505 175.988,202.172 187.5,202.5C 187.5,188.833 187.5,175.167 187.5,161.5 Z"/></g>
</svg>
